<svg xmlns="http://www.w3.org/2000/svg" viewBox="0 0 400 400" width="400" height="400"><rect width="400" height="400" fill="#ffffff"/><polygon points="200.0,158.0 236.4,221.0 163.6,221.0" fill="none" stroke="#d0d7de" stroke-width="1"/><polygon points="200.0,116.0 272.7,242.0 127.3,242.0" fill="none" stroke="#d0d7de" stroke-width="1"/><polygon points="200.0,74.0 309.1,263.0 90.9,263.0" fill="none" stroke="#d0d7de" stroke-width="1"/><polygon points="200.0,32.0 345.5,284.0 54.5,284.0" fill="none" stroke="#d0d7de" stroke-width="1"/><line x1="200.0" y1="200.0" x2="200.0" y2="32.0" stroke="#656d76" stroke-width="1"/><line x1="200.0" y1="200.0" x2="345.5" y2="284.0" stroke="#656d76" stroke-width="1"/><line x1="200.0" y1="200.0" x2="54.5" y2="284.0" stroke="#656d76" stroke-width="1"/><polygon points="200.0,32.0 256.7,232.8 182.5,210.1" fill="rgba(88, 166, 255, 0.15)" stroke="#58a6ff" stroke-width="2"/><text x="200.0" y="6.8" text-anchor="middle" dominant-baseline="middle" font-size="14.000000000000002" fill="#24292f" font-family="system-ui, sans-serif">JavaScript</text><text x="367.3" y="296.6" text-anchor="start" dominant-baseline="middle" font-size="14.000000000000002" fill="#24292f" font-family="system-ui, sans-serif">Python</text><text x="32.7" y="296.6" text-anchor="end" dominant-baseline="middle" font-size="14.000000000000002" fill="#24292f" font-family="system-ui, sans-serif">TypeScript</text><text x="200.0" y="24.0" text-anchor="middle" font-size="12.0" fill="#58a6ff" font-family="system-ui, sans-serif" font-weight="600">100</text><text x="256.7" y="224.8" text-anchor="middle" font-size="12.0" fill="#58a6ff" font-family="system-ui, sans-serif" font-weight="600">39</text><text x="182.5" y="202.1" text-anchor="middle" font-size="12.0" fill="#58a6ff" font-family="system-ui, sans-serif" font-weight="600">12</text><text x="200.0" y="24.0" text-anchor="middle" font-size="20.0" fill="#24292f" font-family="system-ui, sans-serif" font-weight="600">Language Radar</text></svg>